<svg xmlns="http://www.w3.org/2000/svg" width="32" height="32" viewBox="0 0 32 32"><g transform="translate(-399.01 -1412.925)"><path fill="#f7f7f7" d="m 428.50899,1440.5897 0,-1.167 -4,0 0,0.998 0,1 c 0,1.105 0.895,2 2,2 1.105,0 2,-0.895 2,-2" class="st10"/><path fill="#f7f7f7" d="m 424.50899,1441.4207 0,-1 0,-0.995 -0.003,0 0,-22 c 0,-1.105 -0.895,-2 -2,-2 l -20,0 2,2.065 0,23.935 c 0,1.105 0.895,2 2,2 l 20,0 0,0 c -1.103,0 -1.997,-0.896 -1.997,-2 z" class="st0"/><path fill="#fff" d="m 402.50586,395.06445 2,2.06446 0,23.93554 c 0,1.105 0.895,2 2,2 l 1.49414,0 c -1.105,0 -2,-0.895 -2,-2 l 0,-23.93554 -2,-2.06446 -1.49414,0 z" transform="translate(0 1020.362)"/><path fill="#f7f7f7" d="m 402.50899,1415.4237 c -1.105,0 -2,0.895 -2,2 l 4,0 2,0 14,0 c 0,-1.105 0.895,-2 2,-2 l -20,0 z" class="st0"/><path fill="#fff" d="M402.50977 395.06055c-1.105 0-2 .895-2 2l1.49023 0c0-1.105.895-2 2-2l-1.49023 0zM424.50977 419.06055l0 .99804 0 1c0 1.105.895 2 2 2 .26406 0 .5134-.0536.74414-.14648C426.51921 422.6163 426 421.89947 426 421.05859l0-1 0-.99804-1.49023 0z" transform="translate(0 1020.362)"/><path fill="#1a4875" d="M406.50899 1443.9207c-1.378 0-2.5-1.121-2.5-2.5 0-.276.224-.5.5-.5.276 0 .5.224.5.5 0 .827.673 1.5 1.5 1.5.276 0 .5.224.5.5 0 .276-.224.5-.5.5zM426.50899 1443.9207c-1.379 0-2.5-1.121-2.5-2.5 0-.276.224-.5.5-.5.276 0 .5.224.5.5 0 .827.673 1.5 1.5 1.5.276 0 .5.224.5.5 0 .276-.224.5-.5.5z" class="st21"/><path fill="#1a4875" d="M426.50899 1443.9207c-.276 0-.5-.224-.5-.5 0-.276.224-.5.5-.5.827 0 1.5-.673 1.5-1.5 0-.276.224-.5.5-.5.276 0 .5.224.5.5 0 1.379-1.121 2.5-2.5 2.5zM406.50899 1443.9207c-1.378 0-2.5-1.121-2.5-2.5 0-.276.224-.5.5-.5.276 0 .5.224.5.5 0 .827.673 1.5 1.5 1.5.276 0 .5.224.5.5 0 .276-.224.5-.5.5z" class="st21"/><path fill="#444a54" d="m 428.50899,1438.9237 -3.503,0 0,-21.486 c 0,0 0.003,-0.01 0.003,-0.015 0,-0.69 -0.281,-1.316 -0.734,-1.768 -0.453,-0.453 -1.079,-0.734 -1.769,-0.734 l -20,0 c -0.011,0 -0.021,0.01 -0.032,0.01 -1.361,0.019 -2.465,1.13 -2.465,2.497 0,0.276 0.224,0.5 0.5,0.5 l 3.498,0 0,23.497 c 0,1.379 1.122,2.5 2.5,2.5 l 20,0 0.001,0 c 10e-4,0 10e-4,0 0.002,0 1.263,0 2.299,-0.944 2.466,-2.161 0.019,-0.053 0.034,-0.109 0.034,-0.17 l 0,-2.166 c -0.001,-0.276 -0.225,-0.5 -0.501,-0.5 z m -26,-23 c 0.005,0 0.009,0 0.015,0 l 17.999,0 c -0.222,0.293 -0.388,0.63 -0.464,1.003 l -15.55,0 -3.415,0 c 0.207,-0.582 0.763,-1 1.415,-1 z m 2.498,25.497 0,-23.497 15.502,0 c 0.276,0 0.5,-0.224 0.5,-0.5 0,-0.827 0.673,-1.5 1.5,-1.5 0.413,0 0.787,0.168 1.059,0.438 0.27,0.272 0.438,0.646 0.438,1.059 l 0,22 c 0,0 0.003,0.01 0.003,0.015 l 0,1.985 c 0,0.565 0.195,1.081 0.512,1.5 l -18.014,0 c -0.828,0 -1.5,-0.673 -1.5,-1.5 z m 21.502,1.5 c -0.827,0 -1.5,-0.673 -1.5,-1.5 l 0,-1.497 3,0 0,1.497 c 0,0.827 -0.673,1.5 -1.5,1.5 z" class="st21"/></g></svg>